#!OML:ASF H:\Male1\Project 1\Capture day 1\Session 1\Male1.ASF
:FULLY-SPECIFIED
:DEGREES
179
root -1.85642 13.8788 -0.544956 -186.862 79.7266 -190.898
lowerback 27.0659 2.09163 -7.47033
upperback 8.12661 1.39049 -3.16357
thorax -5.91083 1.06715 0.317141
lowerneck -13.6847 1.21683 6.37475
upperneck 2.27576 0.856357 -3.65002
head 3.25753 0.373669 -2.31376
rclavicle -1.74931e-014 -3.10104e-014
rhumerus -34.1853 12.8796 -72.9985
rradius 81.5196
rwrist -18.8725
rhand -18.0297 6.29457
rfingers 7.12502
rthumb 8.24163 -23.5247
lclavicle -1.74931e-014 -3.10104e-014
lhumerus 5.09297 -5.12706 55.2374
lradius 50.4542
lwrist 18.9154
lhand -34.4544 17.4641
lfingers 7.12502
lthumb -7.61821 47.3069
rfemur -57.2955 -5.70385 17.3997
rtibia 71.4004
rfoot -21.3785 -23.6976
rtoes -30.8851
lfemur -27.7244 -13.9835 -21.2498
ltibia 58.394
lfoot -33.0027 12.6971
ltoes -25.0194
180
root -1.6084 13.9723 -0.537882 -186.168 78.7634 -190.254
lowerback 26.8604 2.01291 -7.45265
upperback 7.9333 1.29581 -2.85924
thorax -6.03098 1.01327 0.67529
lowerneck -13.4432 1.01465 6.50193
upperneck 2.34168 0.597482 -3.97229
head 3.22599 0.233187 -2.466
rclavicle -9.14409e-015 -1.03368e-014
rhumerus -34.6777 10.6975 -68.6101
rradius 81.6884
rwrist -21.2088
rhand -17.1153 5.72704
rfingers 7.12502
rthumb 9.1241 -24.0556
lclavicle -9.14409e-015 -1.03368e-014
lhumerus 7.1145 -5.89187 52.9974
lradius 53.8862
lwrist 20.1215
lhand -35.6026 18.9628
lfingers 7.12502
lthumb -8.72633 48.7624
rfemur -57.796 -5.69372 17.4251
rtibia 69.1776
rfoot -20.4484 -23.3952
rtoes -33.0931
lfemur -25.5578 -14.5117 -21.2732
ltibia 56.1573
lfoot -32.9861 12.2586
ltoes -24.835
181
root -1.33733 14.1025 -0.536246 -184.94 78.0141 -189.181
lowerback 26.0647 1.86872 -7.13106
upperback 7.85673 1.25487 -2.56783
thorax -5.73328 0.971355 0.849573
lowerneck -13.5845 0.926002 6.14698
upperneck 2.92733 0.504801 -3.63114
head 3.44397 0.198226 -2.2979
rclavicle -1.19271e-014 -1.74931e-014
rhumerus -35.3835 9.55381 -64.1792
rradius 80.9433
rwrist -21.7131
rhand -17.7711 5.73406
rfingers 7.12502
rthumb 8.49129 -24.0752
lclavicle -1.19271e-014 -1.74931e-014
lhumerus 8.59453 -6.65276 50.6971
lradius 57.6204
lwrist 21.5549
lhand -34.5661 19.2479
lfingers 7.12502
lthumb -7.72596 49.0868
rfemur -57.8969 -5.45251 17.4349
rtibia 66.6299
rfoot -20.2812 -22.8113
rtoes -33.736
lfemur -22.9603 -15.0983 -21.157
ltibia 53.0419
lfoot -32.5581 12.047
ltoes -24.6923
182
root -1.0416 14.2748 -0.533702 -185.068 77.3327 -189.424
lowerback 25.3077 1.70114 -7.27279
upperback 7.69317 1.04955 -2.24074
thorax -5.53698 0.850509 1.36774
lowerneck -13.2721 0.929137 5.98505
upperneck 3.16572 0.561356 -3.80164
head 3.47098 0.217351 -2.32266
rclavicle 2.0276e-014 4.05521e-014
rhumerus -36.3982 9.10223 -59.7405
rradius 80.6393
rwrist -22.796
rhand -17.1693 5.1012
rfingers 7.12502
rthumb 9.07193 -24.6837
lclavicle 2.0276e-014 4.05521e-014
lhumerus 8.97237 -6.8998 48.6498
lradius 61.5523
lwrist 22.7958
lhand -32.5672 16.3529
lfingers 7.12502
lthumb -5.79639 46.2536
rfemur -57.3805 -5.03546 16.9939
rtibia 63.8085
rfoot -19.4318 -22.4661
rtoes -35.8
lfemur -19.6993 -15.7323 -21.3551
ltibia 49.0067
lfoot -31.5903 11.9639
ltoes -24.7282
183
root -0.720355 14.4861 -0.526476 -185.391 76.7734 -189.807
lowerback 24.6838 1.55322 -6.92903
upperback 7.38016 0.93407 -2.25215
thorax -5.5692 0.782699 1.20342
lowerneck -12.839 0.820488 5.8711
upperneck 3.48044 0.442352 -3.62831
head 3.48708 0.166437 -2.24989
rclavicle 7.15625e-015 -1.35174e-014
rhumerus -38.36 9.26232 -56.0403
rradius 80.0873
rwrist -24.087
rhand -17.4196 5.02679
rfingers 7.12502
rthumb 8.83049 -24.7685
lclavicle 7.15625e-015 -1.35174e-014
lhumerus 8.98441 -7.72007 46.4414
lradius 65.4519
lwrist 23.9485
lhand -32.1618 16.0883
lfingers 7.12502
lthumb -5.40491 45.9994
rfemur -56.2657 -4.30101 16.4143
rtibia 60.7198
rfoot -19.0273 -22.4041
rtoes -36.4971
lfemur -15.8512 -16.3052 -21.5976
ltibia 44.1657
lfoot -30.0448 11.7971
ltoes -24.4046
184
root -0.379986 14.7225 -0.519611 -184.674 76.2301 -189.115
lowerback 23.938 1.18172 -6.64794
upperback 7.09996 0.534604 -2.02065
thorax -5.48411 0.568601 1.42157
lowerneck -12.1882 1.10423 6.07893
upperneck 3.56564 0.84845 -4.02848
head 3.42239 0.356578 -2.39385
rclavicle 2.34566e-014 -6.36111e-015
rhumerus -39.5853 10.2949 -52.5766
rradius 79.1326
rwrist -25.2689
rhand -16.8753 4.397
rfingers 7.12502
rthumb 9.35568 -25.3754
lclavicle 2.34566e-014 -6.36111e-015
lhumerus 7.84889 -7.71877 44.5539
lradius 69.399
lwrist 24.6091
lhand -31.3149 14.5331
lfingers 7.12502
lthumb -4.5872 44.4635
rfemur -54.6337 -3.44404 16.0508
rtibia 57.3318
rfoot -19.5597 -22.7107
rtoes -36.5117
lfemur -11.7699 -16.8457 -21.6075
ltibia 39.0464
lfoot -28.1151 11.6562
ltoes -24.0031
185
root -0.031211 14.9593 -0.514311 -184.447 75.3828 -188.992
lowerback 23.1491 0.628696 -6.25455
upperback 6.8696 -0.0735281 -1.94591
thorax -5.30365 0.254927 1.45468
lowerneck -12.0349 1.38272 6.23052
upperneck 4.00901 1.22082 -4.22586
head 3.57677 0.537489 -2.47016
rclavicle -2.78299e-015 2.3059e-014
rhumerus -40.8364 11.837 -49.7686
rradius 78.1621
rwrist -27.7283
rhand -16.4981 3.83071
rfingers 7.12502
rthumb 9.71963 -25.925
lclavicle -2.78299e-015 2.3059e-014
lhumerus 6.404 -7.56709 42.6299
lradius 73.3713
lwrist 25.1339
lhand -30.3044 12.6424
lfingers 7.12502
lthumb -3.61141 42.5916
rfemur -52.7241 -2.84588 15.4957
rtibia 53.845
rfoot -20.7762 -22.7643
rtoes -34.2256
lfemur -7.96375 -17.5516 -21.7961
ltibia 34.2369
lfoot -24.5564 11.5169
ltoes -24.8967
